<?xml version="1.0" encoding="utf-8" standalone="no"?>
<!DOCTYPE svg PUBLIC "-//W3C//DTD SVG 1.1//EN"
  "http://www.w3.org/Graphics/SVG/1.1/DTD/svg11.dtd">
<svg xmlns:xlink="http://www.w3.org/1999/xlink" width="864pt" height="360pt" viewBox="0 0 864 360" xmlns="http://www.w3.org/2000/svg" version="1.1">
 <metadata>
  <rdf:RDF xmlns:dc="http://purl.org/dc/elements/1.1/" xmlns:cc="http://creativecommons.org/ns#" xmlns:rdf="http://www.w3.org/1999/02/22-rdf-syntax-ns#">
   <cc:Work>
    <dc:type rdf:resource="http://purl.org/dc/dcmitype/StillImage"/>
    <dc:date>2025-03-23T20:06:15.195391</dc:date>
    <dc:format>image/svg+xml</dc:format>
    <dc:creator>
     <cc:Agent>
      <dc:title>Matplotlib v3.10.1, https://matplotlib.org/</dc:title>
     </cc:Agent>
    </dc:creator>
   </cc:Work>
  </rdf:RDF>
 </metadata>
 <defs>
  <style type="text/css">*{stroke-linejoin: round; stroke-linecap: butt}</style>
 </defs>
 <g id="figure_1">
  <g id="patch_1">
   <path d="M 0 360 
L 864 360 
L 864 0 
L 0 0 
L 0 360 
z
" style="fill: none; opacity: 0"/>
  </g>
  <g id="axes_1">
   <g id="patch_2">
    <path d="M 108 320.4 
L 777.6 320.4 
L 777.6 43.2 
L 108 43.2 
L 108 320.4 
z
" style="fill: none; opacity: 0"/>
   </g>
   <g id="matplotlib.axis_1">
    <g id="xtick_1">
     <g id="line2d_1">
      <path d="M 127.972442 320.4 
L 127.972442 43.2 
" clip-path="url(#paf57878ee8)" style="fill: none; stroke-dasharray: 5.12,1.28,0.8,1.28; stroke-dashoffset: 0; stroke: #b0b0b0; stroke-width: 0.8"/>
     </g>
     <g id="line2d_2">
      <defs>
       <path id="me7ca175193" d="M 0 0 
L 0 3.5 
" style="stroke: #a9a9a9; stroke-width: 0.8"/>
      </defs>
      <g>
       <use xlink:href="#me7ca175193" x="127.972442" y="320.4" style="fill: #a9a9a9; stroke: #a9a9a9; stroke-width: 0.8"/>
      </g>
     </g>
     <g id="text_1">
      <!-- 2021-07 -->
      <g style="fill: #a9a9a9" transform="translate(107.081036 334.998438) scale(0.1 -0.1)">
       <defs>
        <path id="DejaVuSans-32" d="M 1228 531 
L 3431 531 
L 3431 0 
L 469 0 
L 469 531 
Q 828 903 1448 1529 
Q 2069 2156 2228 2338 
Q 2531 2678 2651 2914 
Q 2772 3150 2772 3378 
Q 2772 3750 2511 3984 
Q 2250 4219 1831 4219 
Q 1534 4219 1204 4116 
Q 875 4013 500 3803 
L 500 4441 
Q 881 4594 1212 4672 
Q 1544 4750 1819 4750 
Q 2544 4750 2975 4387 
Q 3406 4025 3406 3419 
Q 3406 3131 3298 2873 
Q 3191 2616 2906 2266 
Q 2828 2175 2409 1742 
Q 1991 1309 1228 531 
z
" transform="scale(0.015625)"/>
        <path id="DejaVuSans-30" d="M 2034 4250 
Q 1547 4250 1301 3770 
Q 1056 3291 1056 2328 
Q 1056 1369 1301 889 
Q 1547 409 2034 409 
Q 2525 409 2770 889 
Q 3016 1369 3016 2328 
Q 3016 3291 2770 3770 
Q 2525 4250 2034 4250 
z
M 2034 4750 
Q 2819 4750 3233 4129 
Q 3647 3509 3647 2328 
Q 3647 1150 3233 529 
Q 2819 -91 2034 -91 
Q 1250 -91 836 529 
Q 422 1150 422 2328 
Q 422 3509 836 4129 
Q 1250 4750 2034 4750 
z
" transform="scale(0.015625)"/>
        <path id="DejaVuSans-31" d="M 794 531 
L 1825 531 
L 1825 4091 
L 703 3866 
L 703 4441 
L 1819 4666 
L 2450 4666 
L 2450 531 
L 3481 531 
L 3481 0 
L 794 0 
L 794 531 
z
" transform="scale(0.015625)"/>
        <path id="DejaVuSans-2d" d="M 313 2009 
L 1997 2009 
L 1997 1497 
L 313 1497 
L 313 2009 
z
" transform="scale(0.015625)"/>
        <path id="DejaVuSans-37" d="M 525 4666 
L 3525 4666 
L 3525 4397 
L 1831 0 
L 1172 0 
L 2766 4134 
L 525 4134 
L 525 4666 
z
" transform="scale(0.015625)"/>
       </defs>
       <use xlink:href="#DejaVuSans-32"/>
       <use xlink:href="#DejaVuSans-30" transform="translate(63.623047 0)"/>
       <use xlink:href="#DejaVuSans-32" transform="translate(127.246094 0)"/>
       <use xlink:href="#DejaVuSans-31" transform="translate(190.869141 0)"/>
       <use xlink:href="#DejaVuSans-2d" transform="translate(254.492188 0)"/>
       <use xlink:href="#DejaVuSans-30" transform="translate(290.576172 0)"/>
       <use xlink:href="#DejaVuSans-37" transform="translate(354.199219 0)"/>
      </g>
     </g>
    </g>
    <g id="xtick_2">
     <g id="line2d_3">
      <path d="M 211.683816 320.4 
L 211.683816 43.2 
" clip-path="url(#paf57878ee8)" style="fill: none; stroke-dasharray: 5.12,1.28,0.8,1.28; stroke-dashoffset: 0; stroke: #b0b0b0; stroke-width: 0.8"/>
     </g>
     <g id="line2d_4">
      <g>
       <use xlink:href="#me7ca175193" x="211.683816" y="320.4" style="fill: #a9a9a9; stroke: #a9a9a9; stroke-width: 0.8"/>
      </g>
     </g>
     <g id="text_2">
      <!-- 2022-01 -->
      <g style="fill: #a9a9a9" transform="translate(190.792409 334.998438) scale(0.1 -0.1)">
       <use xlink:href="#DejaVuSans-32"/>
       <use xlink:href="#DejaVuSans-30" transform="translate(63.623047 0)"/>
       <use xlink:href="#DejaVuSans-32" transform="translate(127.246094 0)"/>
       <use xlink:href="#DejaVuSans-32" transform="translate(190.869141 0)"/>
       <use xlink:href="#DejaVuSans-2d" transform="translate(254.492188 0)"/>
       <use xlink:href="#DejaVuSans-30" transform="translate(290.576172 0)"/>
       <use xlink:href="#DejaVuSans-31" transform="translate(354.199219 0)"/>
      </g>
     </g>
    </g>
    <g id="xtick_3">
     <g id="line2d_5">
      <path d="M 294.03033 320.4 
L 294.03033 43.2 
" clip-path="url(#paf57878ee8)" style="fill: none; stroke-dasharray: 5.12,1.28,0.8,1.28; stroke-dashoffset: 0; stroke: #b0b0b0; stroke-width: 0.8"/>
     </g>
     <g id="line2d_6">
      <g>
       <use xlink:href="#me7ca175193" x="294.03033" y="320.4" style="fill: #a9a9a9; stroke: #a9a9a9; stroke-width: 0.8"/>
      </g>
     </g>
     <g id="text_3">
      <!-- 2022-07 -->
      <g style="fill: #a9a9a9" transform="translate(273.138924 334.998438) scale(0.1 -0.1)">
       <use xlink:href="#DejaVuSans-32"/>
       <use xlink:href="#DejaVuSans-30" transform="translate(63.623047 0)"/>
       <use xlink:href="#DejaVuSans-32" transform="translate(127.246094 0)"/>
       <use xlink:href="#DejaVuSans-32" transform="translate(190.869141 0)"/>
       <use xlink:href="#DejaVuSans-2d" transform="translate(254.492188 0)"/>
       <use xlink:href="#DejaVuSans-30" transform="translate(290.576172 0)"/>
       <use xlink:href="#DejaVuSans-37" transform="translate(354.199219 0)"/>
      </g>
     </g>
    </g>
    <g id="xtick_4">
     <g id="line2d_7">
      <path d="M 377.741704 320.4 
L 377.741704 43.2 
" clip-path="url(#paf57878ee8)" style="fill: none; stroke-dasharray: 5.12,1.28,0.8,1.28; stroke-dashoffset: 0; stroke: #b0b0b0; stroke-width: 0.8"/>
     </g>
     <g id="line2d_8">
      <g>
       <use xlink:href="#me7ca175193" x="377.741704" y="320.4" style="fill: #a9a9a9; stroke: #a9a9a9; stroke-width: 0.8"/>
      </g>
     </g>
     <g id="text_4">
      <!-- 2023-01 -->
      <g style="fill: #a9a9a9" transform="translate(356.850298 334.998438) scale(0.1 -0.1)">
       <defs>
        <path id="DejaVuSans-33" d="M 2597 2516 
Q 3050 2419 3304 2112 
Q 3559 1806 3559 1356 
Q 3559 666 3084 287 
Q 2609 -91 1734 -91 
Q 1441 -91 1130 -33 
Q 819 25 488 141 
L 488 750 
Q 750 597 1062 519 
Q 1375 441 1716 441 
Q 2309 441 2620 675 
Q 2931 909 2931 1356 
Q 2931 1769 2642 2001 
Q 2353 2234 1838 2234 
L 1294 2234 
L 1294 2753 
L 1863 2753 
Q 2328 2753 2575 2939 
Q 2822 3125 2822 3475 
Q 2822 3834 2567 4026 
Q 2313 4219 1838 4219 
Q 1578 4219 1281 4162 
Q 984 4106 628 3988 
L 628 4550 
Q 988 4650 1302 4700 
Q 1616 4750 1894 4750 
Q 2613 4750 3031 4423 
Q 3450 4097 3450 3541 
Q 3450 3153 3228 2886 
Q 3006 2619 2597 2516 
z
" transform="scale(0.015625)"/>
       </defs>
       <use xlink:href="#DejaVuSans-32"/>
       <use xlink:href="#DejaVuSans-30" transform="translate(63.623047 0)"/>
       <use xlink:href="#DejaVuSans-32" transform="translate(127.246094 0)"/>
       <use xlink:href="#DejaVuSans-33" transform="translate(190.869141 0)"/>
       <use xlink:href="#DejaVuSans-2d" transform="translate(254.492188 0)"/>
       <use xlink:href="#DejaVuSans-30" transform="translate(290.576172 0)"/>
       <use xlink:href="#DejaVuSans-31" transform="translate(354.199219 0)"/>
      </g>
     </g>
    </g>
    <g id="xtick_5">
     <g id="line2d_9">
      <path d="M 460.088219 320.4 
L 460.088219 43.2 
" clip-path="url(#paf57878ee8)" style="fill: none; stroke-dasharray: 5.12,1.28,0.8,1.28; stroke-dashoffset: 0; stroke: #b0b0b0; stroke-width: 0.8"/>
     </g>
     <g id="line2d_10">
      <g>
       <use xlink:href="#me7ca175193" x="460.088219" y="320.4" style="fill: #a9a9a9; stroke: #a9a9a9; stroke-width: 0.8"/>
      </g>
     </g>
     <g id="text_5">
      <!-- 2023-07 -->
      <g style="fill: #a9a9a9" transform="translate(439.196812 334.998438) scale(0.1 -0.1)">
       <use xlink:href="#DejaVuSans-32"/>
       <use xlink:href="#DejaVuSans-30" transform="translate(63.623047 0)"/>
       <use xlink:href="#DejaVuSans-32" transform="translate(127.246094 0)"/>
       <use xlink:href="#DejaVuSans-33" transform="translate(190.869141 0)"/>
       <use xlink:href="#DejaVuSans-2d" transform="translate(254.492188 0)"/>
       <use xlink:href="#DejaVuSans-30" transform="translate(290.576172 0)"/>
       <use xlink:href="#DejaVuSans-37" transform="translate(354.199219 0)"/>
      </g>
     </g>
    </g>
    <g id="xtick_6">
     <g id="line2d_11">
      <path d="M 543.799592 320.4 
L 543.799592 43.2 
" clip-path="url(#paf57878ee8)" style="fill: none; stroke-dasharray: 5.12,1.28,0.8,1.28; stroke-dashoffset: 0; stroke: #b0b0b0; stroke-width: 0.8"/>
     </g>
     <g id="line2d_12">
      <g>
       <use xlink:href="#me7ca175193" x="543.799592" y="320.4" style="fill: #a9a9a9; stroke: #a9a9a9; stroke-width: 0.8"/>
      </g>
     </g>
     <g id="text_6">
      <!-- 2024-01 -->
      <g style="fill: #a9a9a9" transform="translate(522.908186 334.998438) scale(0.1 -0.1)">
       <defs>
        <path id="DejaVuSans-34" d="M 2419 4116 
L 825 1625 
L 2419 1625 
L 2419 4116 
z
M 2253 4666 
L 3047 4666 
L 3047 1625 
L 3713 1625 
L 3713 1100 
L 3047 1100 
L 3047 0 
L 2419 0 
L 2419 1100 
L 313 1100 
L 313 1709 
L 2253 4666 
z
" transform="scale(0.015625)"/>
       </defs>
       <use xlink:href="#DejaVuSans-32"/>
       <use xlink:href="#DejaVuSans-30" transform="translate(63.623047 0)"/>
       <use xlink:href="#DejaVuSans-32" transform="translate(127.246094 0)"/>
       <use xlink:href="#DejaVuSans-34" transform="translate(190.869141 0)"/>
       <use xlink:href="#DejaVuSans-2d" transform="translate(254.492188 0)"/>
       <use xlink:href="#DejaVuSans-30" transform="translate(290.576172 0)"/>
       <use xlink:href="#DejaVuSans-31" transform="translate(354.199219 0)"/>
      </g>
     </g>
    </g>
    <g id="xtick_7">
     <g id="line2d_13">
      <path d="M 626.60106 320.4 
L 626.60106 43.2 
" clip-path="url(#paf57878ee8)" style="fill: none; stroke-dasharray: 5.12,1.28,0.8,1.28; stroke-dashoffset: 0; stroke: #b0b0b0; stroke-width: 0.8"/>
     </g>
     <g id="line2d_14">
      <g>
       <use xlink:href="#me7ca175193" x="626.60106" y="320.4" style="fill: #a9a9a9; stroke: #a9a9a9; stroke-width: 0.8"/>
      </g>
     </g>
     <g id="text_7">
      <!-- 2024-07 -->
      <g style="fill: #a9a9a9" transform="translate(605.709654 334.998438) scale(0.1 -0.1)">
       <use xlink:href="#DejaVuSans-32"/>
       <use xlink:href="#DejaVuSans-30" transform="translate(63.623047 0)"/>
       <use xlink:href="#DejaVuSans-32" transform="translate(127.246094 0)"/>
       <use xlink:href="#DejaVuSans-34" transform="translate(190.869141 0)"/>
       <use xlink:href="#DejaVuSans-2d" transform="translate(254.492188 0)"/>
       <use xlink:href="#DejaVuSans-30" transform="translate(290.576172 0)"/>
       <use xlink:href="#DejaVuSans-37" transform="translate(354.199219 0)"/>
      </g>
     </g>
    </g>
    <g id="xtick_8">
     <g id="line2d_15">
      <path d="M 710.312434 320.4 
L 710.312434 43.2 
" clip-path="url(#paf57878ee8)" style="fill: none; stroke-dasharray: 5.12,1.28,0.8,1.28; stroke-dashoffset: 0; stroke: #b0b0b0; stroke-width: 0.8"/>
     </g>
     <g id="line2d_16">
      <g>
       <use xlink:href="#me7ca175193" x="710.312434" y="320.4" style="fill: #a9a9a9; stroke: #a9a9a9; stroke-width: 0.8"/>
      </g>
     </g>
     <g id="text_8">
      <!-- 2025-01 -->
      <g style="fill: #a9a9a9" transform="translate(689.421028 334.998438) scale(0.1 -0.1)">
       <defs>
        <path id="DejaVuSans-35" d="M 691 4666 
L 3169 4666 
L 3169 4134 
L 1269 4134 
L 1269 2991 
Q 1406 3038 1543 3061 
Q 1681 3084 1819 3084 
Q 2600 3084 3056 2656 
Q 3513 2228 3513 1497 
Q 3513 744 3044 326 
Q 2575 -91 1722 -91 
Q 1428 -91 1123 -41 
Q 819 9 494 109 
L 494 744 
Q 775 591 1075 516 
Q 1375 441 1709 441 
Q 2250 441 2565 725 
Q 2881 1009 2881 1497 
Q 2881 1984 2565 2268 
Q 2250 2553 1709 2553 
Q 1456 2553 1204 2497 
Q 953 2441 691 2322 
L 691 4666 
z
" transform="scale(0.015625)"/>
       </defs>
       <use xlink:href="#DejaVuSans-32"/>
       <use xlink:href="#DejaVuSans-30" transform="translate(63.623047 0)"/>
       <use xlink:href="#DejaVuSans-32" transform="translate(127.246094 0)"/>
       <use xlink:href="#DejaVuSans-35" transform="translate(190.869141 0)"/>
       <use xlink:href="#DejaVuSans-2d" transform="translate(254.492188 0)"/>
       <use xlink:href="#DejaVuSans-30" transform="translate(290.576172 0)"/>
       <use xlink:href="#DejaVuSans-31" transform="translate(354.199219 0)"/>
      </g>
     </g>
    </g>
   </g>
   <g id="matplotlib.axis_2">
    <g id="ytick_1">
     <g id="line2d_17">
      <path d="M 108 307.833866 
L 777.6 307.833866 
" clip-path="url(#paf57878ee8)" style="fill: none; stroke-dasharray: 5.12,1.28,0.8,1.28; stroke-dashoffset: 0; stroke: #b0b0b0; stroke-width: 0.8"/>
     </g>
     <g id="line2d_18">
      <defs>
       <path id="ma9aed12dad" d="M 0 0 
L -3.5 0 
" style="stroke: #a9a9a9; stroke-width: 0.8"/>
      </defs>
      <g>
       <use xlink:href="#ma9aed12dad" x="108" y="307.833866" style="fill: #a9a9a9; stroke: #a9a9a9; stroke-width: 0.8"/>
      </g>
     </g>
     <g id="text_9">
      <!-- 0 -->
      <g style="fill: #a9a9a9" transform="translate(94.6375 311.633085) scale(0.1 -0.1)">
       <use xlink:href="#DejaVuSans-30"/>
      </g>
     </g>
    </g>
    <g id="ytick_2">
     <g id="line2d_19">
      <path d="M 108 273.967451 
L 777.6 273.967451 
" clip-path="url(#paf57878ee8)" style="fill: none; stroke-dasharray: 5.12,1.28,0.8,1.28; stroke-dashoffset: 0; stroke: #b0b0b0; stroke-width: 0.8"/>
     </g>
     <g id="line2d_20">
      <g>
       <use xlink:href="#ma9aed12dad" x="108" y="273.967451" style="fill: #a9a9a9; stroke: #a9a9a9; stroke-width: 0.8"/>
      </g>
     </g>
     <g id="text_10">
      <!-- 1000 -->
      <g style="fill: #a9a9a9" transform="translate(75.55 277.766669) scale(0.1 -0.1)">
       <use xlink:href="#DejaVuSans-31"/>
       <use xlink:href="#DejaVuSans-30" transform="translate(63.623047 0)"/>
       <use xlink:href="#DejaVuSans-30" transform="translate(127.246094 0)"/>
       <use xlink:href="#DejaVuSans-30" transform="translate(190.869141 0)"/>
      </g>
     </g>
    </g>
    <g id="ytick_3">
     <g id="line2d_21">
      <path d="M 108 240.101035 
L 777.6 240.101035 
" clip-path="url(#paf57878ee8)" style="fill: none; stroke-dasharray: 5.12,1.28,0.8,1.28; stroke-dashoffset: 0; stroke: #b0b0b0; stroke-width: 0.8"/>
     </g>
     <g id="line2d_22">
      <g>
       <use xlink:href="#ma9aed12dad" x="108" y="240.101035" style="fill: #a9a9a9; stroke: #a9a9a9; stroke-width: 0.8"/>
      </g>
     </g>
     <g id="text_11">
      <!-- 2000 -->
      <g style="fill: #a9a9a9" transform="translate(75.55 243.900254) scale(0.1 -0.1)">
       <use xlink:href="#DejaVuSans-32"/>
       <use xlink:href="#DejaVuSans-30" transform="translate(63.623047 0)"/>
       <use xlink:href="#DejaVuSans-30" transform="translate(127.246094 0)"/>
       <use xlink:href="#DejaVuSans-30" transform="translate(190.869141 0)"/>
      </g>
     </g>
    </g>
    <g id="ytick_4">
     <g id="line2d_23">
      <path d="M 108 206.234619 
L 777.6 206.234619 
" clip-path="url(#paf57878ee8)" style="fill: none; stroke-dasharray: 5.12,1.28,0.8,1.28; stroke-dashoffset: 0; stroke: #b0b0b0; stroke-width: 0.8"/>
     </g>
     <g id="line2d_24">
      <g>
       <use xlink:href="#ma9aed12dad" x="108" y="206.234619" style="fill: #a9a9a9; stroke: #a9a9a9; stroke-width: 0.8"/>
      </g>
     </g>
     <g id="text_12">
      <!-- 3000 -->
      <g style="fill: #a9a9a9" transform="translate(75.55 210.033838) scale(0.1 -0.1)">
       <use xlink:href="#DejaVuSans-33"/>
       <use xlink:href="#DejaVuSans-30" transform="translate(63.623047 0)"/>
       <use xlink:href="#DejaVuSans-30" transform="translate(127.246094 0)"/>
       <use xlink:href="#DejaVuSans-30" transform="translate(190.869141 0)"/>
      </g>
     </g>
    </g>
    <g id="ytick_5">
     <g id="line2d_25">
      <path d="M 108 172.368203 
L 777.6 172.368203 
" clip-path="url(#paf57878ee8)" style="fill: none; stroke-dasharray: 5.12,1.28,0.8,1.28; stroke-dashoffset: 0; stroke: #b0b0b0; stroke-width: 0.8"/>
     </g>
     <g id="line2d_26">
      <g>
       <use xlink:href="#ma9aed12dad" x="108" y="172.368203" style="fill: #a9a9a9; stroke: #a9a9a9; stroke-width: 0.8"/>
      </g>
     </g>
     <g id="text_13">
      <!-- 4000 -->
      <g style="fill: #a9a9a9" transform="translate(75.55 176.167422) scale(0.1 -0.1)">
       <use xlink:href="#DejaVuSans-34"/>
       <use xlink:href="#DejaVuSans-30" transform="translate(63.623047 0)"/>
       <use xlink:href="#DejaVuSans-30" transform="translate(127.246094 0)"/>
       <use xlink:href="#DejaVuSans-30" transform="translate(190.869141 0)"/>
      </g>
     </g>
    </g>
    <g id="ytick_6">
     <g id="line2d_27">
      <path d="M 108 138.501787 
L 777.6 138.501787 
" clip-path="url(#paf57878ee8)" style="fill: none; stroke-dasharray: 5.12,1.28,0.8,1.28; stroke-dashoffset: 0; stroke: #b0b0b0; stroke-width: 0.8"/>
     </g>
     <g id="line2d_28">
      <g>
       <use xlink:href="#ma9aed12dad" x="108" y="138.501787" style="fill: #a9a9a9; stroke: #a9a9a9; stroke-width: 0.8"/>
      </g>
     </g>
     <g id="text_14">
      <!-- 5000 -->
      <g style="fill: #a9a9a9" transform="translate(75.55 142.301006) scale(0.1 -0.1)">
       <use xlink:href="#DejaVuSans-35"/>
       <use xlink:href="#DejaVuSans-30" transform="translate(63.623047 0)"/>
       <use xlink:href="#DejaVuSans-30" transform="translate(127.246094 0)"/>
       <use xlink:href="#DejaVuSans-30" transform="translate(190.869141 0)"/>
      </g>
     </g>
    </g>
    <g id="ytick_7">
     <g id="line2d_29">
      <path d="M 108 104.635372 
L 777.6 104.635372 
" clip-path="url(#paf57878ee8)" style="fill: none; stroke-dasharray: 5.12,1.28,0.8,1.28; stroke-dashoffset: 0; stroke: #b0b0b0; stroke-width: 0.8"/>
     </g>
     <g id="line2d_30">
      <g>
       <use xlink:href="#ma9aed12dad" x="108" y="104.635372" style="fill: #a9a9a9; stroke: #a9a9a9; stroke-width: 0.8"/>
      </g>
     </g>
     <g id="text_15">
      <!-- 6000 -->
      <g style="fill: #a9a9a9" transform="translate(75.55 108.43459) scale(0.1 -0.1)">
       <defs>
        <path id="DejaVuSans-36" d="M 2113 2584 
Q 1688 2584 1439 2293 
Q 1191 2003 1191 1497 
Q 1191 994 1439 701 
Q 1688 409 2113 409 
Q 2538 409 2786 701 
Q 3034 994 3034 1497 
Q 3034 2003 2786 2293 
Q 2538 2584 2113 2584 
z
M 3366 4563 
L 3366 3988 
Q 3128 4100 2886 4159 
Q 2644 4219 2406 4219 
Q 1781 4219 1451 3797 
Q 1122 3375 1075 2522 
Q 1259 2794 1537 2939 
Q 1816 3084 2150 3084 
Q 2853 3084 3261 2657 
Q 3669 2231 3669 1497 
Q 3669 778 3244 343 
Q 2819 -91 2113 -91 
Q 1303 -91 875 529 
Q 447 1150 447 2328 
Q 447 3434 972 4092 
Q 1497 4750 2381 4750 
Q 2619 4750 2861 4703 
Q 3103 4656 3366 4563 
z
" transform="scale(0.015625)"/>
       </defs>
       <use xlink:href="#DejaVuSans-36"/>
       <use xlink:href="#DejaVuSans-30" transform="translate(63.623047 0)"/>
       <use xlink:href="#DejaVuSans-30" transform="translate(127.246094 0)"/>
       <use xlink:href="#DejaVuSans-30" transform="translate(190.869141 0)"/>
      </g>
     </g>
    </g>
    <g id="ytick_8">
     <g id="line2d_31">
      <path d="M 108 70.768956 
L 777.6 70.768956 
" clip-path="url(#paf57878ee8)" style="fill: none; stroke-dasharray: 5.12,1.28,0.8,1.28; stroke-dashoffset: 0; stroke: #b0b0b0; stroke-width: 0.8"/>
     </g>
     <g id="line2d_32">
      <g>
       <use xlink:href="#ma9aed12dad" x="108" y="70.768956" style="fill: #a9a9a9; stroke: #a9a9a9; stroke-width: 0.8"/>
      </g>
     </g>
     <g id="text_16">
      <!-- 7000 -->
      <g style="fill: #a9a9a9" transform="translate(75.55 74.568175) scale(0.1 -0.1)">
       <use xlink:href="#DejaVuSans-37"/>
       <use xlink:href="#DejaVuSans-30" transform="translate(63.623047 0)"/>
       <use xlink:href="#DejaVuSans-30" transform="translate(127.246094 0)"/>
       <use xlink:href="#DejaVuSans-30" transform="translate(190.869141 0)"/>
      </g>
     </g>
    </g>
   </g>
   <g id="line2d_33">
    <path d="M 138.436364 307.732267 
L 141.166082 307.495202 
L 141.621035 307.292004 
L 143.440848 307.054939 
L 145.26066 306.682408 
L 146.170567 306.546943 
L 148.445332 306.343744 
L 149.355238 305.971214 
L 149.810192 305.361618 
L 150.265145 305.05682 
L 150.720098 304.006961 
L 151.175051 303.939229 
L 151.630004 303.566698 
L 152.53991 303.092568 
L 154.359723 301.602446 
L 156.179535 300.688053 
L 157.544395 300.044591 
L 157.999348 299.29953 
L 158.909254 298.622201 
L 159.364207 298.419003 
L 163.913738 297.741675 
L 164.368691 297.538476 
L 167.553363 297.267545 
L 169.373176 296.827281 
L 173.012801 296.319285 
L 173.467754 296.08222 
L 173.922707 296.014487 
L 174.832613 295.70969 
L 178.017285 295.167827 
L 178.927191 294.896896 
L 183.021769 294.185701 
L 183.931675 293.982502 
L 184.841582 293.948636 
L 186.661394 293.508373 
L 187.116347 292.864911 
L 188.481207 292.323048 
L 189.846066 291.950517 
L 190.301019 291.713452 
L 191.210925 291.54412 
L 193.030738 291.002258 
L 193.940644 290.934525 
L 194.85055 290.69746 
L 196.670363 290.22333 
L 197.125316 290.189464 
L 198.035222 289.7492 
L 198.490175 289.681468 
L 198.945128 289.444403 
L 203.949613 288.597742 
L 205.769425 288.05588 
L 206.224378 287.751082 
L 208.499144 287.006021 
L 209.40905 286.362559 
L 210.773909 286.091627 
L 220.782878 283.145249 
L 221.237831 283.111383 
L 222.602691 282.704986 
L 223.057644 282.704986 
L 223.512597 282.501787 
L 224.422503 282.400188 
L 224.877456 282.230856 
L 226.697269 282.163123 
L 227.607175 281.993791 
L 228.517081 281.519661 
L 229.88194 281.011665 
L 230.336894 280.706867 
L 231.2468 280.30047 
L 231.701753 280.063405 
L 232.611659 279.758608 
L 233.066612 279.623142 
L 233.976519 279.047413 
L 234.431472 278.539417 
L 235.341378 277.117027 
L 235.796331 276.981562 
L 236.251284 276.981562 
L 237.616143 276.168768 
L 238.071097 275.931703 
L 238.52605 275.830103 
L 238.981003 275.38984 
L 239.890909 275.01731 
L 240.800815 274.577046 
L 243.075581 271.630668 
L 245.8053 270.140546 
L 246.715206 269.395484 
L 247.170159 269.090687 
L 247.625112 268.447225 
L 248.080065 267.397366 
L 248.535018 266.686171 
L 248.989971 266.313641 
L 249.444925 266.110442 
L 253.08455 262.723801 
L 253.994456 261.87714 
L 256.724174 260.149953 
L 257.179128 259.980621 
L 258.543987 259.167827 
L 259.908846 258.253434 
L 261.728659 256.593979 
L 262.638565 256.221449 
L 263.548471 255.577987 
L 264.003424 255.307056 
L 264.458377 255.239323 
L 265.823237 254.460395 
L 266.27819 253.952399 
L 268.552956 252.699341 
L 269.007909 252.530009 
L 270.372768 251.58175 
L 277.197065 249.143368 
L 278.106971 248.296707 
L 279.47183 247.619379 
L 280.381737 247.04365 
L 281.291643 246.772719 
L 281.746596 246.467921 
L 282.201549 246.332455 
L 283.566408 245.418062 
L 285.841174 244.876199 
L 287.206033 244.063405 
L 288.570893 243.758608 
L 289.025846 243.657008 
L 290.390705 242.60715 
L 292.210518 242.099153 
L 292.665471 241.726623 
L 295.39519 240.778363 
L 296.305096 240.609031 
L 297.215002 240.2365 
L 300.399674 239.051176 
L 301.30958 238.91571 
L 302.674439 238.44158 
L 304.949205 237.323989 
L 306.769018 236.307996 
L 310.408642 234.784008 
L 310.863596 234.716275 
L 311.773502 234.140546 
L 312.683408 233.903481 
L 314.048267 233.361618 
L 315.86808 233.124553 
L 316.777986 232.650423 
L 317.232939 232.244026 
L 317.687892 231.397366 
L 319.507705 230.88937 
L 320.872564 230.178175 
L 321.78247 229.873377 
L 322.692377 229.399247 
L 325.422095 228.281656 
L 326.332002 228.078457 
L 327.241908 227.604327 
L 327.696861 227.401129 
L 328.151814 227.333396 
L 330.42658 226.215804 
L 331.336486 225.640075 
L 332.701345 225.369144 
L 334.521158 224.861148 
L 334.976111 224.827281 
L 335.431064 224.454751 
L 336.34097 224.149953 
L 338.615736 223.23556 
L 339.070689 222.896896 
L 339.525642 222.727563 
L 340.435548 222.219567 
L 342.255361 221.643838 
L 343.165267 221.068109 
L 343.62022 220.593979 
L 344.075173 220.323048 
L 344.530126 220.221449 
L 345.440033 219.476388 
L 345.894986 219.408655 
L 346.349939 218.663594 
L 346.804892 218.460395 
L 347.259845 218.087865 
L 347.714798 218.020132 
L 348.624704 217.444403 
L 349.534611 217.139605 
L 349.989564 216.800941 
L 350.444517 216.631609 
L 352.264329 215.412418 
L 353.629189 214.701223 
L 354.539095 214.464158 
L 355.449001 213.956162 
L 355.903954 213.177234 
L 356.813861 212.499906 
L 357.268814 212.398307 
L 359.998532 211.077516 
L 360.908439 210.704986 
L 362.273298 209.553528 
L 363.183204 208.7746 
L 364.09311 208.232738 
L 364.548064 207.724741 
L 365.003017 207.419944 
L 365.912923 206.674882 
L 366.367876 206.471684 
L 367.277782 205.557291 
L 368.187689 205.252493 
L 369.097595 204.642897 
L 370.462454 203.931703 
L 370.917407 203.86397 
L 372.282267 203.118909 
L 373.192173 202.54318 
L 377.741704 200.849859 
L 378.196657 200.477328 
L 380.01647 199.766134 
L 380.471423 199.630668 
L 381.381329 199.021072 
L 382.291235 198.648542 
L 383.201141 198.00508 
L 384.111048 196.176294 
L 385.020954 195.092568 
L 386.385813 194.381373 
L 387.29572 194.008843 
L 387.750673 193.94111 
L 388.205626 193.670179 
L 390.480391 192.925118 
L 390.935344 192.721919 
L 391.845251 192.078457 
L 393.21011 191.502728 
L 394.120016 190.994732 
L 395.029923 190.452869 
L 395.484876 190.148071 
L 395.939829 189.640075 
L 396.849735 189.132079 
L 399.124501 187.879022 
L 401.854219 186.490499 
L 403.219079 186.084102 
L 404.583938 185.542239 
L 405.038891 185.203575 
L 405.948797 184.932643 
L 406.858704 184.560113 
L 407.313657 184.187582 
L 409.133469 183.54412 
L 410.043375 182.900659 
L 410.953282 182.528128 
L 411.863188 181.816933 
L 412.773094 181.546002 
L 413.228047 181.139605 
L 413.683 181.071872 
L 414.592907 180.360677 
L 415.502813 179.886548 
L 415.957766 179.683349 
L 416.412719 179.209219 
L 419.597391 177.922295 
L 420.507297 177.515898 
L 421.872157 177.075635 
L 422.782063 176.940169 
L 423.237016 176.736971 
L 423.691969 176.669238 
L 424.601875 176.262841 
L 425.056828 176.228975 
L 426.876641 175.551646 
L 428.2415 174.56952 
L 428.696453 174.400188 
L 429.60636 173.892192 
L 430.061313 173.756726 
L 432.791031 172.198871 
L 433.245985 172.097272 
L 434.610844 171.284478 
L 435.975703 170.810348 
L 436.885609 170.50555 
L 438.705422 169.895955 
L 439.615328 169.591157 
L 441.435141 169.218627 
L 441.890094 169.015428 
L 442.345047 168.947695 
L 443.254953 168.541298 
L 443.709906 168.473565 
L 444.164859 168.2365 
L 445.074766 168.067168 
L 446.439625 167.559172 
L 447.349531 167.457573 
L 448.714391 167.152775 
L 450.989156 166.746378 
L 462.817937 163.224271 
L 463.27289 162.750141 
L 464.182797 162.377611 
L 467.822422 160.989087 
L 468.277375 160.718156 
L 469.642234 160.311759 
L 470.55214 160.074694 
L 471.007093 159.769897 
L 471.462046 159.668297 
L 471.917 159.2619 
L 473.281859 158.990969 
L 474.191765 158.550706 
L 474.646718 158.008843 
L 476.466531 157.568579 
L 479.651203 156.891251 
L 480.106156 156.891251 
L 480.561109 156.688053 
L 482.380921 156.349389 
L 482.835874 156.14619 
L 484.655687 155.807526 
L 485.565593 155.401129 
L 486.475499 155.231797 
L 488.750265 154.656068 
L 490.570077 154.080339 
L 491.025031 153.978739 
L 491.479984 153.741675 
L 492.38989 153.50461 
L 493.299796 153.132079 
L 494.209702 152.793415 
L 494.664656 152.488617 
L 495.574562 152.217686 
L 499.214187 150.964628 
L 500.124093 150.896896 
L 501.943905 150.355033 
L 502.398859 150.084102 
L 503.308765 149.81317 
L 505.58353 148.763311 
L 506.038483 148.729445 
L 511.042968 146.934525 
L 513.317733 146.324929 
L 514.22764 145.884666 
L 515.592499 145.579868 
L 517.412311 144.089746 
L 519.232124 143.310818 
L 520.14203 142.904421 
L 522.871749 141.854563 
L 523.326702 141.549765 
L 525.601468 140.804704 
L 526.966327 140.025776 
L 527.42128 139.924177 
L 529.696046 138.671119 
L 531.060905 138.061524 
L 531.515858 137.72286 
L 532.425764 137.418062 
L 534.70053 136.266604 
L 536.065389 135.792474 
L 537.885202 135.047413 
L 539.250061 134.539417 
L 539.705014 134.370085 
L 540.614921 134.234619 
L 541.069874 133.929821 
L 542.889686 133.557291 
L 543.799592 133.18476 
L 545.619405 132.3381 
L 551.988748 129.561054 
L 553.353608 129.12079 
L 553.808561 128.815992 
L 554.718467 128.714393 
L 555.17342 128.409595 
L 556.083327 128.240263 
L 556.993233 127.8 
L 557.448186 127.596802 
L 557.903139 127.529069 
L 558.813045 127.224271 
L 561.997717 126.106679 
L 563.362576 125.801881 
L 565.182389 125.05682 
L 566.092295 124.548824 
L 567.912108 123.634431 
L 568.822014 123.431232 
L 569.276967 123.160301 
L 569.73192 123.058702 
L 571.096779 122.279774 
L 572.006686 121.907244 
L 573.826498 121.196049 
L 576.101264 120.417121 
L 577.01117 119.942992 
L 579.285936 119.164064 
L 582.015654 118.046472 
L 583.835467 117.199812 
L 588.384998 115.438758 
L 588.839951 115.13396 
L 590.659764 114.524365 
L 591.114717 114.524365 
L 592.024623 114.117968 
L 593.844435 112.627846 
L 594.299389 112.49238 
L 594.754342 112.221449 
L 596.119201 111.848918 
L 596.574154 111.510254 
L 597.029107 111.408655 
L 597.939013 110.832926 
L 599.303873 110.121731 
L 600.213779 109.7492 
L 600.668732 109.512135 
L 602.033592 109.207338 
L 604.308357 108.42841 
L 605.218263 108.123612 
L 606.583123 107.412418 
L 607.493029 106.972154 
L 608.402935 106.735089 
L 609.767795 106.091627 
L 613.862373 104.567639 
L 615.227232 103.720978 
L 615.682185 103.619379 
L 616.592091 103.179116 
L 617.501998 102.840452 
L 617.956951 102.434055 
L 618.866857 102.061524 
L 620.231716 101.587394 
L 620.686669 101.214864 
L 621.141623 101.180997 
L 622.051529 100.910066 
L 622.961435 100.605268 
L 623.416388 100.40207 
L 623.871341 100.334337 
L 625.236201 99.826341 
L 626.60106 99.318344 
L 628.420872 98.50555 
L 628.875826 98.437817 
L 632.51545 96.913829 
L 633.88031 96.473565 
L 634.790216 96.405833 
L 635.700122 96.033302 
L 638.429841 95.220508 
L 639.339747 95.186642 
L 642.979372 94.001317 
L 643.889278 93.527187 
L 644.344232 93.12079 
L 645.709091 92.307996 
L 646.618997 91.766134 
L 649.348716 90.885607 
L 649.803669 90.513076 
L 652.533388 89.361618 
L 654.3532 88.853622 
L 655.263106 88.447225 
L 655.71806 88.21016 
L 656.627966 87.939229 
L 657.082919 87.668297 
L 657.992825 87.498965 
L 661.63245 85.94111 
L 662.087403 85.873377 
L 662.542356 85.568579 
L 662.997309 85.399247 
L 663.452263 84.99285 
L 663.907216 84.925118 
L 665.727028 84.213923 
L 667.546841 83.773659 
L 668.001794 83.705927 
L 668.456747 83.502728 
L 668.9117 83.468862 
L 669.821606 83.164064 
L 670.276559 83.130198 
L 671.641419 82.588335 
L 673.461231 82.046472 
L 674.371137 81.369144 
L 676.19095 80.353151 
L 677.555809 79.879022 
L 681.195434 78.151834 
L 681.650387 77.91477 
L 682.10534 77.474506 
L 684.380106 76.864911 
L 685.744965 76.255315 
L 686.654872 76.01825 
L 687.109825 75.781185 
L 687.564778 75.408655 
L 689.38459 74.934525 
L 689.839543 74.595861 
L 695.753934 72.462277 
L 696.66384 72.292944 
L 698.938606 71.58175 
L 699.848512 71.209219 
L 700.758418 70.870555 
L 701.668325 70.63349 
L 702.123278 70.430292 
L 702.578231 70.430292 
L 703.488137 70.057761 
L 704.398043 69.515898 
L 706.672809 68.736971 
L 708.037668 68.262841 
L 708.492621 68.195108 
L 709.402528 67.822578 
L 710.767387 67.51778 
L 712.132246 67.077516 
L 712.587199 66.975917 
L 713.042152 66.671119 
L 713.952059 66.467921 
L 723.051121 63.860207 
L 725.325887 63.45381 
L 726.235793 63.013547 
L 727.145699 62.573283 
L 728.510558 62.166886 
L 733.06009 60.439699 
L 733.515043 60.101035 
L 734.879902 59.796237 
L 735.789808 59.525306 
L 736.699715 59.085042 
L 737.154668 58.678645 
L 738.064574 58.373848 
L 738.519527 58.102916 
L 739.429433 58.001317 
L 742.614105 57.12079 
L 743.978965 56.849859 
L 747.163636 55.8 
L 747.163636 55.8 
" clip-path="url(#paf57878ee8)" style="fill: none; stroke: #1f77b4; stroke-width: 1.5; stroke-linecap: square"/>
   </g>
   <g id="line2d_34">
    <path d="M 138.891317 307.8 
L 142.985895 307.698401 
L 146.62552 307.529069 
L 148.445332 307.529069 
L 148.900285 307.393603 
L 151.175051 307.292004 
L 153.90477 306.987206 
L 156.634488 306.885607 
L 157.544395 306.784008 
L 160.729066 306.648542 
L 163.913738 306.546943 
L 166.188504 306.47921 
L 172.102894 306.377611 
L 174.37766 306.309878 
L 177.562332 306.208278 
L 179.837097 306.140546 
L 184.841582 306.038946 
L 186.661394 305.869614 
L 188.481207 305.835748 
L 191.210925 305.734149 
L 193.030738 305.700282 
L 195.305503 305.632549 
L 197.125316 305.463217 
L 201.219894 305.361618 
L 202.1298 305.293885 
L 203.949613 305.192286 
L 206.679331 305.090687 
L 208.499144 304.989087 
L 216.6883 304.481091 
L 219.872972 304.379492 
L 221.237831 304.244026 
L 223.512597 304.142427 
L 228.062128 303.905362 
L 232.611659 303.837629 
L 234.431472 303.634431 
L 236.251284 303.532832 
L 241.255768 303.058702 
L 244.44044 302.686171 
L 245.8053 302.618438 
L 249.444925 302.144309 
L 252.174643 302.076576 
L 253.539503 301.94111 
L 254.904362 301.839511 
L 267.643049 300.857385 
L 268.552956 300.688053 
L 271.282674 300.586453 
L 278.561924 300.14619 
L 281.746596 300.044591 
L 283.566408 299.841392 
L 285.841174 299.739793 
L 288.570893 299.638194 
L 290.845658 299.536595 
L 292.665471 299.502728 
L 294.940236 299.434995 
L 295.850143 299.29953 
L 302.219486 299.19793 
L 303.129393 299.096331 
L 308.58883 298.994732 
L 312.683408 298.791533 
L 315.86808 298.689934 
L 317.687892 298.486736 
L 320.872564 298.385136 
L 321.78247 298.215804 
L 324.057236 298.148071 
L 328.606767 298.080339 
L 330.42658 297.911007 
L 332.246392 297.87714 
L 333.611252 297.775541 
L 335.431064 297.606209 
L 339.980595 297.369144 
L 344.530126 297.267545 
L 348.624704 297.064346 
L 349.989564 297.03048 
L 350.89947 296.895014 
L 353.174236 296.793415 
L 354.084142 296.725682 
L 354.994048 296.657949 
L 355.903954 296.590216 
L 359.998532 296.522484 
L 361.363392 296.420884 
L 373.647126 295.60809 
L 375.921892 295.506491 
L 378.196657 295.438758 
L 384.566001 295.337159 
L 385.475907 295.201693 
L 391.845251 295.100094 
L 396.394782 294.863029 
L 397.304688 294.829163 
L 398.214594 294.727563 
L 400.48936 294.625964 
L 402.764126 294.558231 
L 405.038891 294.456632 
L 407.313657 294.388899 
L 411.408235 294.2873 
L 414.137954 294.185701 
L 420.507297 294.084102 
L 425.511781 293.81317 
L 427.331594 293.745437 
L 428.696453 293.643838 
L 435.065797 293.542239 
L 437.795516 293.44064 
L 445.984672 293.33904 
L 447.804484 293.305174 
L 453.263922 293.237441 
L 454.173828 293.169708 
L 460.543172 293.068109 
L 462.362984 293.034243 
L 474.191765 292.932643 
L 475.556625 292.797178 
L 496.029515 292.695579 
L 498.30428 292.627846 
L 510.133062 292.560113 
L 511.042968 292.49238 
L 513.317733 292.424647 
L 514.682593 292.289182 
L 517.412311 292.187582 
L 520.596983 292.052117 
L 524.691561 291.950517 
L 526.966327 291.882785 
L 530.150999 291.781185 
L 533.790624 291.611853 
L 536.065389 291.510254 
L 537.885202 291.476388 
L 541.97978 291.374788 
L 543.799592 291.340922 
L 549.713983 291.239323 
L 551.533795 291.205456 
L 553.808561 291.103857 
L 556.53828 291.002258 
L 559.722951 290.934525 
L 560.632858 290.866792 
L 571.551733 290.765193 
L 577.466123 290.426529 
L 579.740889 290.358796 
L 580.650795 290.257197 
L 581.560701 290.189464 
L 585.200326 290.087865 
L 587.930045 289.986265 
L 592.479576 289.884666 
L 594.754342 289.647601 
L 599.303873 289.546002 
L 600.213779 289.444403 
L 604.76331 289.342803 
L 607.038076 289.275071 
L 612.04256 289.241204 
L 612.952466 289.139605 
L 617.956951 289.038006 
L 618.866857 288.970273 
L 628.875826 288.868674 
L 631.605544 288.767074 
L 638.429841 288.665475 
L 640.249653 288.631609 
L 644.344232 288.563876 
L 645.254138 288.462277 
L 651.168528 288.360677 
L 653.443294 288.292944 
L 661.63245 288.191345 
L 662.997309 288.089746 
L 664.362169 287.988147 
L 665.727028 287.886548 
L 672.551325 287.784948 
L 675.281044 287.683349 
L 687.564778 287.58175 
L 691.659356 287.378551 
L 697.118793 287.276952 
L 698.0287 287.209219 
L 704.852996 287.141486 
L 705.762903 287.073754 
L 710.767387 286.972154 
L 712.587199 286.938288 
L 718.956543 286.836689 
L 721.686262 286.735089 
L 729.420465 286.63349 
L 731.240277 286.599624 
L 735.334855 286.498024 
L 738.97448 286.328692 
L 743.978965 286.227093 
L 747.163636 286.091627 
L 747.163636 286.091627 
" clip-path="url(#paf57878ee8)" style="fill: none; stroke: #ff7f0e; stroke-width: 1.5; stroke-linecap: square"/>
   </g>
   <g id="patch_3">
    <path d="M 108 320.4 
L 108 43.2 
" style="fill: none; stroke: #a9a9a9; stroke-width: 0.8; stroke-linejoin: miter; stroke-linecap: square"/>
   </g>
   <g id="patch_4">
    <path d="M 777.6 320.4 
L 777.6 43.2 
" style="fill: none"/>
   </g>
   <g id="patch_5">
    <path d="M 108 320.4 
L 777.6 320.4 
" style="fill: none; stroke: #a9a9a9; stroke-width: 0.8; stroke-linejoin: miter; stroke-linecap: square"/>
   </g>
   <g id="patch_6">
    <path d="M 108 43.2 
L 777.6 43.2 
" style="fill: none"/>
   </g>
   <g id="text_17">
    <!-- get_subscribe history -->
    <g style="fill: #a9a9a9" transform="translate(378.6075 37.2) scale(0.12 -0.12)">
     <defs>
      <path id="DejaVuSans-67" d="M 2906 1791 
Q 2906 2416 2648 2759 
Q 2391 3103 1925 3103 
Q 1463 3103 1205 2759 
Q 947 2416 947 1791 
Q 947 1169 1205 825 
Q 1463 481 1925 481 
Q 2391 481 2648 825 
Q 2906 1169 2906 1791 
z
M 3481 434 
Q 3481 -459 3084 -895 
Q 2688 -1331 1869 -1331 
Q 1566 -1331 1297 -1286 
Q 1028 -1241 775 -1147 
L 775 -588 
Q 1028 -725 1275 -790 
Q 1522 -856 1778 -856 
Q 2344 -856 2625 -561 
Q 2906 -266 2906 331 
L 2906 616 
Q 2728 306 2450 153 
Q 2172 0 1784 0 
Q 1141 0 747 490 
Q 353 981 353 1791 
Q 353 2603 747 3093 
Q 1141 3584 1784 3584 
Q 2172 3584 2450 3431 
Q 2728 3278 2906 2969 
L 2906 3500 
L 3481 3500 
L 3481 434 
z
" transform="scale(0.015625)"/>
      <path id="DejaVuSans-65" d="M 3597 1894 
L 3597 1613 
L 953 1613 
Q 991 1019 1311 708 
Q 1631 397 2203 397 
Q 2534 397 2845 478 
Q 3156 559 3463 722 
L 3463 178 
Q 3153 47 2828 -22 
Q 2503 -91 2169 -91 
Q 1331 -91 842 396 
Q 353 884 353 1716 
Q 353 2575 817 3079 
Q 1281 3584 2069 3584 
Q 2775 3584 3186 3129 
Q 3597 2675 3597 1894 
z
M 3022 2063 
Q 3016 2534 2758 2815 
Q 2500 3097 2075 3097 
Q 1594 3097 1305 2825 
Q 1016 2553 972 2059 
L 3022 2063 
z
" transform="scale(0.015625)"/>
      <path id="DejaVuSans-74" d="M 1172 4494 
L 1172 3500 
L 2356 3500 
L 2356 3053 
L 1172 3053 
L 1172 1153 
Q 1172 725 1289 603 
Q 1406 481 1766 481 
L 2356 481 
L 2356 0 
L 1766 0 
Q 1100 0 847 248 
Q 594 497 594 1153 
L 594 3053 
L 172 3053 
L 172 3500 
L 594 3500 
L 594 4494 
L 1172 4494 
z
" transform="scale(0.015625)"/>
      <path id="DejaVuSans-5f" d="M 3263 -1063 
L 3263 -1509 
L -63 -1509 
L -63 -1063 
L 3263 -1063 
z
" transform="scale(0.015625)"/>
      <path id="DejaVuSans-73" d="M 2834 3397 
L 2834 2853 
Q 2591 2978 2328 3040 
Q 2066 3103 1784 3103 
Q 1356 3103 1142 2972 
Q 928 2841 928 2578 
Q 928 2378 1081 2264 
Q 1234 2150 1697 2047 
L 1894 2003 
Q 2506 1872 2764 1633 
Q 3022 1394 3022 966 
Q 3022 478 2636 193 
Q 2250 -91 1575 -91 
Q 1294 -91 989 -36 
Q 684 19 347 128 
L 347 722 
Q 666 556 975 473 
Q 1284 391 1588 391 
Q 1994 391 2212 530 
Q 2431 669 2431 922 
Q 2431 1156 2273 1281 
Q 2116 1406 1581 1522 
L 1381 1569 
Q 847 1681 609 1914 
Q 372 2147 372 2553 
Q 372 3047 722 3315 
Q 1072 3584 1716 3584 
Q 2034 3584 2315 3537 
Q 2597 3491 2834 3397 
z
" transform="scale(0.015625)"/>
      <path id="DejaVuSans-75" d="M 544 1381 
L 544 3500 
L 1119 3500 
L 1119 1403 
Q 1119 906 1312 657 
Q 1506 409 1894 409 
Q 2359 409 2629 706 
Q 2900 1003 2900 1516 
L 2900 3500 
L 3475 3500 
L 3475 0 
L 2900 0 
L 2900 538 
Q 2691 219 2414 64 
Q 2138 -91 1772 -91 
Q 1169 -91 856 284 
Q 544 659 544 1381 
z
M 1991 3584 
L 1991 3584 
z
" transform="scale(0.015625)"/>
      <path id="DejaVuSans-62" d="M 3116 1747 
Q 3116 2381 2855 2742 
Q 2594 3103 2138 3103 
Q 1681 3103 1420 2742 
Q 1159 2381 1159 1747 
Q 1159 1113 1420 752 
Q 1681 391 2138 391 
Q 2594 391 2855 752 
Q 3116 1113 3116 1747 
z
M 1159 2969 
Q 1341 3281 1617 3432 
Q 1894 3584 2278 3584 
Q 2916 3584 3314 3078 
Q 3713 2572 3713 1747 
Q 3713 922 3314 415 
Q 2916 -91 2278 -91 
Q 1894 -91 1617 61 
Q 1341 213 1159 525 
L 1159 0 
L 581 0 
L 581 4863 
L 1159 4863 
L 1159 2969 
z
" transform="scale(0.015625)"/>
      <path id="DejaVuSans-63" d="M 3122 3366 
L 3122 2828 
Q 2878 2963 2633 3030 
Q 2388 3097 2138 3097 
Q 1578 3097 1268 2742 
Q 959 2388 959 1747 
Q 959 1106 1268 751 
Q 1578 397 2138 397 
Q 2388 397 2633 464 
Q 2878 531 3122 666 
L 3122 134 
Q 2881 22 2623 -34 
Q 2366 -91 2075 -91 
Q 1284 -91 818 406 
Q 353 903 353 1747 
Q 353 2603 823 3093 
Q 1294 3584 2113 3584 
Q 2378 3584 2631 3529 
Q 2884 3475 3122 3366 
z
" transform="scale(0.015625)"/>
      <path id="DejaVuSans-72" d="M 2631 2963 
Q 2534 3019 2420 3045 
Q 2306 3072 2169 3072 
Q 1681 3072 1420 2755 
Q 1159 2438 1159 1844 
L 1159 0 
L 581 0 
L 581 3500 
L 1159 3500 
L 1159 2956 
Q 1341 3275 1631 3429 
Q 1922 3584 2338 3584 
Q 2397 3584 2469 3576 
Q 2541 3569 2628 3553 
L 2631 2963 
z
" transform="scale(0.015625)"/>
      <path id="DejaVuSans-69" d="M 603 3500 
L 1178 3500 
L 1178 0 
L 603 0 
L 603 3500 
z
M 603 4863 
L 1178 4863 
L 1178 4134 
L 603 4134 
L 603 4863 
z
" transform="scale(0.015625)"/>
      <path id="DejaVuSans-20" transform="scale(0.015625)"/>
      <path id="DejaVuSans-68" d="M 3513 2113 
L 3513 0 
L 2938 0 
L 2938 2094 
Q 2938 2591 2744 2837 
Q 2550 3084 2163 3084 
Q 1697 3084 1428 2787 
Q 1159 2491 1159 1978 
L 1159 0 
L 581 0 
L 581 4863 
L 1159 4863 
L 1159 2956 
Q 1366 3272 1645 3428 
Q 1925 3584 2291 3584 
Q 2894 3584 3203 3211 
Q 3513 2838 3513 2113 
z
" transform="scale(0.015625)"/>
      <path id="DejaVuSans-6f" d="M 1959 3097 
Q 1497 3097 1228 2736 
Q 959 2375 959 1747 
Q 959 1119 1226 758 
Q 1494 397 1959 397 
Q 2419 397 2687 759 
Q 2956 1122 2956 1747 
Q 2956 2369 2687 2733 
Q 2419 3097 1959 3097 
z
M 1959 3584 
Q 2709 3584 3137 3096 
Q 3566 2609 3566 1747 
Q 3566 888 3137 398 
Q 2709 -91 1959 -91 
Q 1206 -91 779 398 
Q 353 888 353 1747 
Q 353 2609 779 3096 
Q 1206 3584 1959 3584 
z
" transform="scale(0.015625)"/>
      <path id="DejaVuSans-79" d="M 2059 -325 
Q 1816 -950 1584 -1140 
Q 1353 -1331 966 -1331 
L 506 -1331 
L 506 -850 
L 844 -850 
Q 1081 -850 1212 -737 
Q 1344 -625 1503 -206 
L 1606 56 
L 191 3500 
L 800 3500 
L 1894 763 
L 2988 3500 
L 3597 3500 
L 2059 -325 
z
" transform="scale(0.015625)"/>
     </defs>
     <use xlink:href="#DejaVuSans-67"/>
     <use xlink:href="#DejaVuSans-65" transform="translate(63.476562 0)"/>
     <use xlink:href="#DejaVuSans-74" transform="translate(125 0)"/>
     <use xlink:href="#DejaVuSans-5f" transform="translate(164.208984 0)"/>
     <use xlink:href="#DejaVuSans-73" transform="translate(214.208984 0)"/>
     <use xlink:href="#DejaVuSans-75" transform="translate(266.308594 0)"/>
     <use xlink:href="#DejaVuSans-62" transform="translate(329.6875 0)"/>
     <use xlink:href="#DejaVuSans-73" transform="translate(393.164062 0)"/>
     <use xlink:href="#DejaVuSans-63" transform="translate(445.263672 0)"/>
     <use xlink:href="#DejaVuSans-72" transform="translate(500.244141 0)"/>
     <use xlink:href="#DejaVuSans-69" transform="translate(541.357422 0)"/>
     <use xlink:href="#DejaVuSans-62" transform="translate(569.140625 0)"/>
     <use xlink:href="#DejaVuSans-65" transform="translate(632.617188 0)"/>
     <use xlink:href="#DejaVuSans-20" transform="translate(694.140625 0)"/>
     <use xlink:href="#DejaVuSans-68" transform="translate(725.927734 0)"/>
     <use xlink:href="#DejaVuSans-69" transform="translate(789.306641 0)"/>
     <use xlink:href="#DejaVuSans-73" transform="translate(817.089844 0)"/>
     <use xlink:href="#DejaVuSans-74" transform="translate(869.189453 0)"/>
     <use xlink:href="#DejaVuSans-6f" transform="translate(908.398438 0)"/>
     <use xlink:href="#DejaVuSans-72" transform="translate(969.580078 0)"/>
     <use xlink:href="#DejaVuSans-79" transform="translate(1010.693359 0)"/>
    </g>
   </g>
   <g id="legend_1">
    <g id="line2d_35">
     <path d="M 815.08 328.498438 
L 825.08 328.498438 
L 835.08 328.498438 
" style="fill: none; stroke: #1f77b4; stroke-width: 1.5; stroke-linecap: square"/>
    </g>
    <g id="text_18">
     <!-- star -->
     <g style="fill: #a9a9a9" transform="translate(843.08 331.998438) scale(0.1 -0.1)">
      <defs>
       <path id="DejaVuSans-61" d="M 2194 1759 
Q 1497 1759 1228 1600 
Q 959 1441 959 1056 
Q 959 750 1161 570 
Q 1363 391 1709 391 
Q 2188 391 2477 730 
Q 2766 1069 2766 1631 
L 2766 1759 
L 2194 1759 
z
M 3341 1997 
L 3341 0 
L 2766 0 
L 2766 531 
Q 2569 213 2275 61 
Q 1981 -91 1556 -91 
Q 1019 -91 701 211 
Q 384 513 384 1019 
Q 384 1609 779 1909 
Q 1175 2209 1959 2209 
L 2766 2209 
L 2766 2266 
Q 2766 2663 2505 2880 
Q 2244 3097 1772 3097 
Q 1472 3097 1187 3025 
Q 903 2953 641 2809 
L 641 3341 
Q 956 3463 1253 3523 
Q 1550 3584 1831 3584 
Q 2591 3584 2966 3190 
Q 3341 2797 3341 1997 
z
" transform="scale(0.015625)"/>
      </defs>
      <use xlink:href="#DejaVuSans-73"/>
      <use xlink:href="#DejaVuSans-74" transform="translate(52.099609 0)"/>
      <use xlink:href="#DejaVuSans-61" transform="translate(91.308594 0)"/>
      <use xlink:href="#DejaVuSans-72" transform="translate(152.587891 0)"/>
     </g>
    </g>
    <g id="line2d_36">
     <path d="M 815.08 343.176562 
L 825.08 343.176562 
L 835.08 343.176562 
" style="fill: none; stroke: #ff7f0e; stroke-width: 1.5; stroke-linecap: square"/>
    </g>
    <g id="text_19">
     <!-- fork -->
     <g style="fill: #a9a9a9" transform="translate(843.08 346.676562) scale(0.1 -0.1)">
      <defs>
       <path id="DejaVuSans-66" d="M 2375 4863 
L 2375 4384 
L 1825 4384 
Q 1516 4384 1395 4259 
Q 1275 4134 1275 3809 
L 1275 3500 
L 2222 3500 
L 2222 3053 
L 1275 3053 
L 1275 0 
L 697 0 
L 697 3053 
L 147 3053 
L 147 3500 
L 697 3500 
L 697 3744 
Q 697 4328 969 4595 
Q 1241 4863 1831 4863 
L 2375 4863 
z
" transform="scale(0.015625)"/>
       <path id="DejaVuSans-6b" d="M 581 4863 
L 1159 4863 
L 1159 1991 
L 2875 3500 
L 3609 3500 
L 1753 1863 
L 3688 0 
L 2938 0 
L 1159 1709 
L 1159 0 
L 581 0 
L 581 4863 
z
" transform="scale(0.015625)"/>
      </defs>
      <use xlink:href="#DejaVuSans-66"/>
      <use xlink:href="#DejaVuSans-6f" transform="translate(35.205078 0)"/>
      <use xlink:href="#DejaVuSans-72" transform="translate(96.386719 0)"/>
      <use xlink:href="#DejaVuSans-6b" transform="translate(137.5 0)"/>
     </g>
    </g>
   </g>
  </g>
 </g>
 <defs>
  <clipPath id="paf57878ee8">
   <rect x="108" y="43.2" width="669.6" height="277.2"/>
  </clipPath>
 </defs>
</svg>
